<svg xmlns="http://www.w3.org/2000/svg" xmlns:xlink="http://www.w3.org/1999/xlink" width="500" zoomAndPan="magnify" viewBox="0 0 375 374.999991" height="500" preserveAspectRatio="xMidYMid meet" version="1.2"><defs/><g id="6be146246c"><g style="fill:#000000;fill-opacity:1;"><g transform="translate(189.525943, 282.412279)"><path style="stroke:none" d="M -4.53125 -0.546875 L -8.21875 29.640625 L -13.109375 29.046875 L -22.828125 0.84375 L -26.078125 27.453125 L -29.453125 27.046875 L -25.765625 -3.140625 L -20.796875 -2.53125 L -11.140625 25.65625 L -7.890625 -0.96875 Z M -4.53125 -0.546875 "/></g></g><g style="fill:#000000;fill-opacity:1;"><g transform="translate(161.952838, 278.993264)"><path style="stroke:none" d="M -11.15625 -4.421875 C -9.71875 -3.910156 -8.507812 -3.171875 -7.53125 -2.203125 C -6.5625 -1.234375 -5.828125 -0.113281 -5.328125 1.15625 C -4.835938 2.4375 -4.585938 3.796875 -4.578125 5.234375 C -4.578125 6.679688 -4.832031 8.125 -5.34375 9.5625 C -5.863281 11.019531 -6.578125 12.296875 -7.484375 13.390625 C -8.390625 14.484375 -9.429688 15.363281 -10.609375 16.03125 C -11.796875 16.707031 -13.070312 17.109375 -14.4375 17.234375 C -15.800781 17.359375 -17.203125 17.164062 -18.640625 16.65625 C -20.054688 16.15625 -21.257812 15.421875 -22.25 14.453125 C -23.238281 13.492188 -23.988281 12.378906 -24.5 11.109375 C -25.019531 9.835938 -25.285156 8.488281 -25.296875 7.0625 C -25.316406 5.632812 -25.066406 4.191406 -24.546875 2.734375 C -24.035156 1.296875 -23.320312 0.0234375 -22.40625 -1.078125 C -21.488281 -2.191406 -20.425781 -3.085938 -19.21875 -3.765625 C -18.019531 -4.441406 -16.726562 -4.84375 -15.34375 -4.96875 C -13.96875 -5.101562 -12.570312 -4.921875 -11.15625 -4.421875 Z M -12.0625 -1.90625 C -13.195312 -2.3125 -14.253906 -2.429688 -15.234375 -2.265625 C -16.222656 -2.097656 -17.125 -1.722656 -17.9375 -1.140625 C -18.757812 -0.566406 -19.46875 0.148438 -20.0625 1.015625 C -20.65625 1.890625 -21.128906 2.828125 -21.484375 3.828125 C -21.847656 4.847656 -22.070312 5.878906 -22.15625 6.921875 C -22.238281 7.960938 -22.144531 8.957031 -21.875 9.90625 C -21.601562 10.851562 -21.132812 11.695312 -20.46875 12.4375 C -19.8125 13.175781 -18.925781 13.742188 -17.8125 14.140625 C -16.6875 14.535156 -15.628906 14.65625 -14.640625 14.5 C -13.660156 14.34375 -12.765625 13.984375 -11.953125 13.421875 C -11.148438 12.859375 -10.445312 12.144531 -9.84375 11.28125 C -9.238281 10.425781 -8.753906 9.488281 -8.390625 8.46875 C -8.023438 7.445312 -7.804688 6.40625 -7.734375 5.34375 C -7.660156 4.289062 -7.753906 3.285156 -8.015625 2.328125 C -8.273438 1.378906 -8.734375 0.535156 -9.390625 -0.203125 C -10.054688 -0.941406 -10.945312 -1.507812 -12.0625 -1.90625 Z M -12.0625 -1.90625 "/></g></g><g style="fill:#000000;fill-opacity:1;"><g transform="translate(141.394541, 271.824523)"><path style="stroke:none" d="M -7.234375 -4.703125 C -6.078125 -4.035156 -5.171875 -3.21875 -4.515625 -2.25 C -3.867188 -1.28125 -3.523438 -0.234375 -3.484375 0.890625 C -3.441406 2.023438 -3.765625 3.175781 -4.453125 4.34375 C -5.523438 6.195312 -7.019531 7.15625 -8.9375 7.21875 C -10.863281 7.28125 -13.144531 6.546875 -15.78125 5.015625 L -20.03125 2.546875 C -20.707031 3.722656 -21.160156 4.84375 -21.390625 5.90625 C -21.617188 6.96875 -21.546875 7.941406 -21.171875 8.828125 C -20.804688 9.710938 -20.054688 10.484375 -18.921875 11.140625 C -18.046875 11.648438 -17.191406 11.953125 -16.359375 12.046875 C -15.523438 12.148438 -14.75 12.125 -14.03125 11.96875 C -13.320312 11.8125 -12.691406 11.601562 -12.140625 11.34375 L -11.046875 14.09375 C -12.554688 14.757812 -14.066406 15.078125 -15.578125 15.046875 C -17.097656 15.015625 -18.625 14.550781 -20.15625 13.65625 C -21.738281 12.738281 -22.882812 11.648438 -23.59375 10.390625 C -24.300781 9.140625 -24.601562 7.785156 -24.5 6.328125 C -24.394531 4.867188 -23.898438 3.382812 -23.015625 1.875 L -16.390625 -9.53125 L -14.046875 -8.171875 L -16.078125 -4.53125 C -15.078125 -5.21875 -14.066406 -5.648438 -13.046875 -5.828125 C -12.023438 -6.003906 -11.019531 -5.988281 -10.03125 -5.78125 C -9.050781 -5.582031 -8.117188 -5.222656 -7.234375 -4.703125 Z M -8.921875 -2.5625 C -9.878906 -3.113281 -10.847656 -3.40625 -11.828125 -3.4375 C -12.804688 -3.476562 -13.742188 -3.328125 -14.640625 -2.984375 C -15.546875 -2.648438 -16.359375 -2.175781 -17.078125 -1.5625 C -17.796875 -0.957031 -18.375 -0.285156 -18.8125 0.453125 L -14.828125 2.78125 C -12.992188 3.84375 -11.453125 4.382812 -10.203125 4.40625 C -8.960938 4.4375 -7.984375 3.832031 -7.265625 2.59375 C -6.835938 1.863281 -6.644531 1.175781 -6.6875 0.53125 C -6.726562 -0.113281 -6.945312 -0.691406 -7.34375 -1.203125 C -7.75 -1.722656 -8.273438 -2.175781 -8.921875 -2.5625 Z M -8.921875 -2.5625 "/></g></g><g style="fill:#000000;fill-opacity:1;"><g transform="translate(124.147941, 262.159092)"><path style="stroke:none" d="M -2.765625 -2.390625 L -22.65625 20.609375 L -25.0625 18.53125 L -16.921875 9.125 C -17.804688 9.394531 -18.71875 9.507812 -19.65625 9.46875 C -20.601562 9.425781 -21.519531 9.238281 -22.40625 8.90625 C -23.289062 8.570312 -24.082031 8.101562 -24.78125 7.5 C -25.75 6.65625 -26.425781 5.757812 -26.8125 4.8125 C -27.195312 3.875 -27.347656 2.90625 -27.265625 1.90625 C -27.179688 0.914062 -26.898438 -0.0546875 -26.421875 -1.015625 C -25.953125 -1.972656 -25.347656 -2.882812 -24.609375 -3.75 L -15.9375 -13.78125 L -13.46875 -11.640625 L -21.796875 -2 C -22.273438 -1.445312 -22.703125 -0.851562 -23.078125 -0.21875 C -23.460938 0.40625 -23.722656 1.050781 -23.859375 1.71875 C -23.992188 2.394531 -23.957031 3.0625 -23.75 3.71875 C -23.539062 4.375 -23.082031 5.003906 -22.375 5.609375 C -21.65625 6.234375 -20.875 6.65625 -20.03125 6.875 C -19.1875 7.101562 -18.328125 7.144531 -17.453125 7 C -16.585938 6.851562 -15.75 6.550781 -14.9375 6.09375 C -14.125 5.644531 -13.394531 5.046875 -12.75 4.296875 L -5.171875 -4.46875 Z M -2.765625 -2.390625 "/></g></g><g style="fill:#000000;fill-opacity:1;"><g transform="translate(107.45709, 247.307084)"><path style="stroke:none" d=""/></g></g><g style="fill:#000000;fill-opacity:1;"><g transform="translate(100.536689, 240.339678)"><path style="stroke:none" d="M -2.4375 -3.859375 L -28.140625 12.375 L -38.546875 -4.09375 L -36.046875 -5.671875 L -27.46875 7.90625 L -18.34375 2.140625 L -25.90625 -9.84375 L -23.5 -11.359375 L -15.9375 0.625 L -4.265625 -6.75 Z M -2.4375 -3.859375 "/></g></g><g style="fill:#000000;fill-opacity:1;"><g transform="translate(88.02397, 220.654766)"><path style="stroke:none" d="M -3.921875 -10.96875 C -3.335938 -9.4375 -3.09375 -8 -3.1875 -6.65625 C -3.289062 -5.320312 -3.675781 -4.09375 -4.34375 -2.96875 C -5.007812 -1.851562 -5.878906 -0.875 -6.953125 -0.03125 C -8.023438 0.800781 -9.242188 1.484375 -10.609375 2.015625 C -11.960938 2.535156 -13.328125 2.859375 -14.703125 2.984375 C -16.085938 3.109375 -17.410156 3 -18.671875 2.65625 C -19.929688 2.3125 -21.0625 1.703125 -22.0625 0.828125 C -23.0625 -0.0351562 -23.84375 -1.195312 -24.40625 -2.65625 C -24.914062 -3.945312 -25.164062 -5.140625 -25.15625 -6.234375 C -25.15625 -7.335938 -24.953125 -8.34375 -24.546875 -9.25 C -24.148438 -10.164062 -23.613281 -10.984375 -22.9375 -11.703125 C -22.257812 -12.429688 -21.488281 -13.066406 -20.625 -13.609375 C -19.757812 -14.148438 -18.863281 -14.597656 -17.9375 -14.953125 C -17.6875 -15.054688 -17.410156 -15.148438 -17.109375 -15.234375 C -16.804688 -15.328125 -16.550781 -15.398438 -16.34375 -15.453125 L -10.921875 -1.484375 C -10.023438 -1.828125 -9.222656 -2.273438 -8.515625 -2.828125 C -7.816406 -3.378906 -7.253906 -4.019531 -6.828125 -4.75 C -6.398438 -5.476562 -6.148438 -6.273438 -6.078125 -7.140625 C -6.003906 -8.015625 -6.160156 -8.945312 -6.546875 -9.9375 C -6.992188 -11.082031 -7.546875 -12.050781 -8.203125 -12.84375 C -8.859375 -13.644531 -9.75 -14.273438 -10.875 -14.734375 L -10.046875 -17.40625 C -8.515625 -16.75 -7.265625 -15.910156 -6.296875 -14.890625 C -5.335938 -13.867188 -4.546875 -12.5625 -3.921875 -10.96875 Z M -13.375 -0.53125 L -17.71875 -11.734375 C -18.519531 -11.398438 -19.257812 -10.984375 -19.9375 -10.484375 C -20.625 -9.984375 -21.1875 -9.394531 -21.625 -8.71875 C -22.0625 -8.039062 -22.320312 -7.273438 -22.40625 -6.421875 C -22.488281 -5.578125 -22.328125 -4.640625 -21.921875 -3.609375 C -21.566406 -2.691406 -21.085938 -1.957031 -20.484375 -1.40625 C -19.890625 -0.863281 -19.207031 -0.476562 -18.4375 -0.25 C -17.664062 -0.0195312 -16.847656 0.0625 -15.984375 0 C -15.117188 -0.0703125 -14.25 -0.25 -13.375 -0.53125 Z M -13.375 -0.53125 "/></g></g><g style="fill:#000000;fill-opacity:1;"><g transform="translate(80.715128, 201.677366)"><path style="stroke:none" d="M -0.75 -3.53125 L -21.765625 0.984375 L -22.4375 -2.140625 L -18.71875 -2.953125 C -19.65625 -3.140625 -20.5 -3.484375 -21.25 -3.984375 C -22.007812 -4.492188 -22.644531 -5.113281 -23.15625 -5.84375 C -23.675781 -6.582031 -24.03125 -7.394531 -24.21875 -8.28125 C -24.375 -9.007812 -24.40625 -9.675781 -24.3125 -10.28125 C -24.226562 -10.894531 -24.070312 -11.429688 -23.84375 -11.890625 L -20.84375 -11.15625 C -21.070312 -10.738281 -21.195312 -10.300781 -21.21875 -9.84375 C -21.25 -9.382812 -21.210938 -8.910156 -21.109375 -8.421875 C -20.722656 -6.640625 -19.726562 -5.382812 -18.125 -4.65625 C -16.519531 -3.925781 -14.453125 -3.832031 -11.921875 -4.375 L -1.421875 -6.625 Z M -0.75 -3.53125 "/></g></g><g style="fill:#000000;fill-opacity:1;"><g transform="translate(77.374142, 186.668705)"><path style="stroke:none" d="M -0.265625 -3.59375 L -21.703125 -2.015625 L -21.9375 -5.21875 L -18.140625 -5.5 C -19.046875 -5.8125 -19.835938 -6.269531 -20.515625 -6.875 C -21.191406 -7.476562 -21.734375 -8.175781 -22.140625 -8.96875 C -22.546875 -9.769531 -22.78125 -10.625 -22.84375 -11.53125 C -22.894531 -12.269531 -22.832031 -12.9375 -22.65625 -13.53125 C -22.488281 -14.125 -22.265625 -14.628906 -21.984375 -15.046875 L -19.125 -13.90625 C -19.394531 -13.519531 -19.578125 -13.101562 -19.671875 -12.65625 C -19.765625 -12.207031 -19.796875 -11.734375 -19.765625 -11.234375 C -19.628906 -9.410156 -18.8125 -8.03125 -17.3125 -7.09375 C -15.820312 -6.15625 -13.785156 -5.785156 -11.203125 -5.984375 L -0.5 -6.765625 Z M -0.265625 -3.59375 "/></g></g><g style="fill:#000000;fill-opacity:1;"><g transform="translate(75.898468, 171.596881)"><path style="stroke:none" d="M 1.28125 -11.5625 C 1.144531 -9.9375 0.734375 -8.546875 0.046875 -7.390625 C -0.628906 -6.234375 -1.507812 -5.296875 -2.59375 -4.578125 C -3.675781 -3.859375 -4.882812 -3.359375 -6.21875 -3.078125 C -7.5625 -2.804688 -8.960938 -2.734375 -10.421875 -2.859375 C -11.859375 -2.984375 -13.222656 -3.289062 -14.515625 -3.78125 C -15.816406 -4.28125 -16.953125 -4.960938 -17.921875 -5.828125 C -18.898438 -6.691406 -19.648438 -7.734375 -20.171875 -8.953125 C -20.691406 -10.171875 -20.890625 -11.554688 -20.765625 -13.109375 C -20.640625 -14.492188 -20.332031 -15.675781 -19.84375 -16.65625 C -19.351562 -17.644531 -18.726562 -18.460938 -17.96875 -19.109375 C -17.21875 -19.753906 -16.375 -20.25 -15.4375 -20.59375 C -14.507812 -20.945312 -13.539062 -21.175781 -12.53125 -21.28125 C -11.519531 -21.382812 -10.519531 -21.394531 -9.53125 -21.3125 C -9.257812 -21.28125 -8.96875 -21.238281 -8.65625 -21.1875 C -8.351562 -21.144531 -8.097656 -21.101562 -7.890625 -21.0625 L -9.171875 -6.140625 C -8.210938 -6.054688 -7.296875 -6.109375 -6.421875 -6.296875 C -5.546875 -6.484375 -4.753906 -6.804688 -4.046875 -7.265625 C -3.335938 -7.734375 -2.757812 -8.34375 -2.3125 -9.09375 C -1.863281 -9.851562 -1.597656 -10.753906 -1.515625 -11.796875 C -1.410156 -13.023438 -1.476562 -14.140625 -1.71875 -15.140625 C -1.957031 -16.148438 -2.484375 -17.101562 -3.296875 -18 L -1.359375 -20.046875 C -0.285156 -18.785156 0.457031 -17.484375 0.875 -16.140625 C 1.289062 -14.804688 1.425781 -13.28125 1.28125 -11.5625 Z M -11.78125 -6.359375 L -10.765625 -18.328125 C -11.628906 -18.378906 -12.472656 -18.328125 -13.296875 -18.171875 C -14.128906 -18.023438 -14.890625 -17.742188 -15.578125 -17.328125 C -16.273438 -16.910156 -16.847656 -16.335938 -17.296875 -15.609375 C -17.753906 -14.890625 -18.03125 -13.976562 -18.125 -12.875 C -18.207031 -11.894531 -18.09375 -11.023438 -17.78125 -10.265625 C -17.476562 -9.515625 -17.03125 -8.867188 -16.4375 -8.328125 C -15.84375 -7.796875 -15.144531 -7.363281 -14.34375 -7.03125 C -13.550781 -6.707031 -12.695312 -6.484375 -11.78125 -6.359375 Z M -11.78125 -6.359375 "/></g></g><g style="fill:#000000;fill-opacity:1;"><g transform="translate(77.92887, 151.046939)"><path style="stroke:none" d="M -24.90625 -9 L -28.953125 -9.90625 L -28.15625 -13.46875 L -24.109375 -12.5625 Z M 0.78125 -3.5625 L -20.21875 -8.203125 L -19.53125 -11.328125 L 1.46875 -6.6875 Z M 0.78125 -3.5625 "/></g></g><g style="fill:#000000;fill-opacity:1;"><g transform="translate(79.639338, 142.102324)"><path style="stroke:none" d="M 1.15625 -3.421875 L -19.1875 -10.359375 L -18.140625 -13.390625 L -14.53125 -12.15625 C -15.25 -12.789062 -15.800781 -13.519531 -16.1875 -14.34375 C -16.570312 -15.175781 -16.796875 -16.035156 -16.859375 -16.921875 C -16.921875 -17.816406 -16.804688 -18.691406 -16.515625 -19.546875 C -16.273438 -20.242188 -15.957031 -20.832031 -15.5625 -21.3125 C -15.175781 -21.800781 -14.773438 -22.179688 -14.359375 -22.453125 L -12.15625 -20.28125 C -12.5625 -20.039062 -12.890625 -19.726562 -13.140625 -19.34375 C -13.398438 -18.96875 -13.613281 -18.546875 -13.78125 -18.078125 C -14.363281 -16.347656 -14.15625 -14.757812 -13.15625 -13.3125 C -12.15625 -11.863281 -10.425781 -10.722656 -7.96875 -9.890625 L 2.1875 -6.421875 Z M 1.15625 -3.421875 "/></g></g><g style="fill:#000000;fill-opacity:1;"><g transform="translate(84.194058, 127.644874)"><path style="stroke:none" d="M 4.421875 -7.421875 C 3.796875 -6.234375 3.007812 -5.296875 2.0625 -4.609375 C 1.125 -3.921875 0.09375 -3.53125 -1.03125 -3.4375 C -2.15625 -3.351562 -3.316406 -3.628906 -4.515625 -4.265625 C -6.410156 -5.265625 -7.429688 -6.722656 -7.578125 -8.640625 C -7.722656 -10.554688 -7.082031 -12.867188 -5.65625 -15.578125 L -3.375 -19.90625 C -4.570312 -20.539062 -5.703125 -20.945312 -6.765625 -21.125 C -7.835938 -21.3125 -8.804688 -21.203125 -9.671875 -20.796875 C -10.546875 -20.390625 -11.289062 -19.601562 -11.90625 -18.4375 C -12.375 -17.550781 -12.640625 -16.6875 -12.703125 -15.84375 C -12.773438 -15.007812 -12.71875 -14.238281 -12.53125 -13.53125 C -12.34375 -12.832031 -12.109375 -12.207031 -11.828125 -11.65625 L -14.546875 -10.453125 C -15.265625 -11.941406 -15.632812 -13.441406 -15.65625 -14.953125 C -15.6875 -16.472656 -15.285156 -18.019531 -14.453125 -19.59375 C -13.609375 -21.195312 -12.570312 -22.378906 -11.34375 -23.140625 C -10.113281 -23.910156 -8.769531 -24.269531 -7.3125 -24.21875 C -5.851562 -24.175781 -4.347656 -23.742188 -2.796875 -22.921875 L 8.859375 -16.765625 L 7.59375 -14.375 L 3.875 -16.234375 C 4.601562 -15.285156 5.078125 -14.300781 5.296875 -13.28125 C 5.515625 -12.257812 5.539062 -11.253906 5.375 -10.265625 C 5.21875 -9.273438 4.898438 -8.328125 4.421875 -7.421875 Z M 2.1875 -9.015625 C 2.707031 -9.992188 2.960938 -10.972656 2.953125 -11.953125 C 2.953125 -12.929688 2.765625 -13.863281 2.390625 -14.75 C 2.023438 -15.632812 1.519531 -16.425781 0.875 -17.125 C 0.226562 -17.820312 -0.472656 -18.375 -1.234375 -18.78125 L -3.390625 -14.703125 C -4.378906 -12.828125 -4.859375 -11.265625 -4.828125 -10.015625 C -4.796875 -8.773438 -4.144531 -7.816406 -2.875 -7.140625 C -2.132812 -6.742188 -1.441406 -6.578125 -0.796875 -6.640625 C -0.160156 -6.710938 0.40625 -6.960938 0.90625 -7.390625 C 1.40625 -7.816406 1.832031 -8.359375 2.1875 -9.015625 Z M 2.1875 -9.015625 "/></g></g><g style="fill:#000000;fill-opacity:1;"><g transform="translate(93.894892, 109.7823)"><path style="stroke:none" d=""/></g></g><g style="fill:#000000;fill-opacity:1;"><g transform="translate(99.595011, 101.368403)"><path style="stroke:none" d="M 2.09375 -10.078125 C 1.46875 -9.390625 0.722656 -8.910156 -0.140625 -8.640625 C -1.003906 -8.378906 -1.875 -8.335938 -2.75 -8.515625 C -3.632812 -8.703125 -4.421875 -9.109375 -5.109375 -9.734375 C -5.804688 -10.378906 -6.285156 -11.128906 -6.546875 -11.984375 C -6.816406 -12.847656 -6.859375 -13.722656 -6.671875 -14.609375 C -6.484375 -15.492188 -6.078125 -16.28125 -5.453125 -16.96875 C -4.804688 -17.664062 -4.054688 -18.144531 -3.203125 -18.40625 C -2.347656 -18.664062 -1.476562 -18.703125 -0.59375 -18.515625 C 0.289062 -18.335938 1.082031 -17.925781 1.78125 -17.28125 C 2.46875 -16.65625 2.941406 -15.910156 3.203125 -15.046875 C 3.460938 -14.191406 3.503906 -13.320312 3.328125 -12.4375 C 3.148438 -11.5625 2.738281 -10.773438 2.09375 -10.078125 Z M 2.09375 -10.078125 "/></g></g><g style="fill:#000000;fill-opacity:1;"><g transform="translate(109.628296, 89.498236)"><path style="stroke:none" d="M 5.375 -1.03125 L 3.890625 -2.984375 L 17.234375 -13.171875 L 18.71875 -11.21875 Z M 5.375 -1.03125 "/></g></g><g style="fill:#000000;fill-opacity:1;"><g transform="translate(129.086753, 74.86354)"><path style="stroke:none" d="M 5.46875 -8.71875 C 4.644531 -8.289062 3.78125 -8.101562 2.875 -8.15625 C 1.976562 -8.207031 1.144531 -8.472656 0.375 -8.953125 C -0.382812 -9.441406 -0.972656 -10.097656 -1.390625 -10.921875 C -1.828125 -11.765625 -2.015625 -12.632812 -1.953125 -13.53125 C -1.898438 -14.425781 -1.628906 -15.253906 -1.140625 -16.015625 C -0.660156 -16.785156 -0.0078125 -17.382812 0.8125 -17.8125 C 1.65625 -18.25 2.523438 -18.4375 3.421875 -18.375 C 4.316406 -18.3125 5.144531 -18.039062 5.90625 -17.5625 C 6.664062 -17.082031 7.265625 -16.421875 7.703125 -15.578125 C 8.117188 -14.753906 8.300781 -13.890625 8.25 -12.984375 C 8.195312 -12.085938 7.929688 -11.257812 7.453125 -10.5 C 6.972656 -9.75 6.3125 -9.15625 5.46875 -8.71875 Z M 5.46875 -8.71875 "/></g></g><g style="fill:#000000;fill-opacity:1;"><g transform="translate(143.542696, 67.538849)"><path style="stroke:none" d=""/></g></g><g style="fill:#000000;fill-opacity:1;"><g transform="translate(152.214377, 63.288367)"><path style="stroke:none" d="M 4.484375 -0.859375 L -1.1875 -30.734375 L 6.421875 -32.171875 C 9.660156 -32.785156 12.507812 -32.722656 14.96875 -31.984375 C 17.425781 -31.242188 19.445312 -29.859375 21.03125 -27.828125 C 22.625 -25.796875 23.734375 -23.140625 24.359375 -19.859375 C 24.953125 -16.722656 24.863281 -13.945312 24.09375 -11.53125 C 23.332031 -9.125 21.9375 -7.132812 19.90625 -5.5625 C 17.882812 -3.988281 15.265625 -2.898438 12.046875 -2.296875 Z M 7.265625 -4.546875 L 10.96875 -5.25 C 12.695312 -5.582031 14.265625 -6.125 15.671875 -6.875 C 17.078125 -7.625 18.238281 -8.59375 19.15625 -9.78125 C 20.070312 -10.96875 20.695312 -12.359375 21.03125 -13.953125 C 21.375 -15.554688 21.347656 -17.394531 20.953125 -19.46875 C 20.222656 -23.320312 18.679688 -26.082031 16.328125 -27.75 C 13.984375 -29.425781 10.835938 -29.890625 6.890625 -29.140625 L 2.734375 -28.34375 Z M 7.265625 -4.546875 "/></g></g><g style="fill:#000000;fill-opacity:1;"><g transform="translate(179.370452, 58.270144)"><path style="stroke:none" d="M 11.640625 0.578125 C 10.003906 0.535156 8.582031 0.210938 7.375 -0.390625 C 6.175781 -1.003906 5.1875 -1.828125 4.40625 -2.859375 C 3.632812 -3.898438 3.066406 -5.082031 2.703125 -6.40625 C 2.335938 -7.726562 2.171875 -9.117188 2.203125 -10.578125 C 2.234375 -12.023438 2.460938 -13.410156 2.890625 -14.734375 C 3.316406 -16.054688 3.925781 -17.234375 4.71875 -18.265625 C 5.507812 -19.296875 6.5 -20.101562 7.6875 -20.6875 C 8.875 -21.28125 10.25 -21.5625 11.8125 -21.53125 C 13.195312 -21.5 14.394531 -21.269531 15.40625 -20.84375 C 16.425781 -20.414062 17.28125 -19.84375 17.96875 -19.125 C 18.65625 -18.40625 19.203125 -17.59375 19.609375 -16.6875 C 20.023438 -15.78125 20.3125 -14.820312 20.46875 -13.8125 C 20.632812 -12.8125 20.707031 -11.816406 20.6875 -10.828125 C 20.6875 -10.554688 20.671875 -10.265625 20.640625 -9.953125 C 20.609375 -9.640625 20.578125 -9.378906 20.546875 -9.171875 L 5.5625 -9.53125 C 5.539062 -8.570312 5.648438 -7.660156 5.890625 -6.796875 C 6.128906 -5.929688 6.503906 -5.160156 7.015625 -4.484375 C 7.523438 -3.804688 8.164062 -3.269531 8.9375 -2.875 C 9.71875 -2.476562 10.632812 -2.265625 11.6875 -2.234375 C 12.914062 -2.203125 14.023438 -2.335938 15.015625 -2.640625 C 16.003906 -2.941406 16.921875 -3.523438 17.765625 -4.390625 L 19.9375 -2.59375 C 18.738281 -1.4375 17.484375 -0.609375 16.171875 -0.109375 C 14.867188 0.390625 13.359375 0.617188 11.640625 0.578125 Z M 5.625 -12.15625 L 17.640625 -11.875 C 17.640625 -12.738281 17.535156 -13.582031 17.328125 -14.40625 C 17.128906 -15.226562 16.800781 -15.96875 16.34375 -16.625 C 15.882812 -17.289062 15.28125 -17.820312 14.53125 -18.21875 C 13.78125 -18.625 12.851562 -18.84375 11.75 -18.875 C 10.757812 -18.894531 9.894531 -18.726562 9.15625 -18.375 C 8.425781 -18.03125 7.8125 -17.546875 7.3125 -16.921875 C 6.8125 -16.304688 6.421875 -15.585938 6.140625 -14.765625 C 5.867188 -13.941406 5.695312 -13.070312 5.625 -12.15625 Z M 5.625 -12.15625 "/></g></g><g style="fill:#000000;fill-opacity:1;"><g transform="translate(199.554646, 58.648414)"><path style="stroke:none" d="M 8.625 1.71875 L 4.953125 -20.9375 L 8.390625 -20.265625 L 10.828125 -2.109375 L 20.078125 -17.9375 L 23.453125 -17.265625 L 11.421875 2.265625 Z M 8.625 1.71875 "/></g></g><g style="fill:#000000;fill-opacity:1;"><g transform="translate(217.936098, 62.476245)"><path style="stroke:none" d=""/></g></g><g style="fill:#000000;fill-opacity:1;"><g transform="translate(227.650113, 65.46568)"><path style="stroke:none" d="M 10.25 -0.953125 C 9.414062 -1.347656 8.742188 -1.914062 8.234375 -2.65625 C 7.722656 -3.40625 7.425781 -4.226562 7.34375 -5.125 C 7.269531 -6.03125 7.429688 -6.898438 7.828125 -7.734375 C 8.234375 -8.585938 8.804688 -9.265625 9.546875 -9.765625 C 10.296875 -10.273438 11.117188 -10.566406 12.015625 -10.640625 C 12.921875 -10.722656 13.789062 -10.566406 14.625 -10.171875 C 15.476562 -9.765625 16.15625 -9.191406 16.65625 -8.453125 C 17.164062 -7.710938 17.460938 -6.890625 17.546875 -5.984375 C 17.628906 -5.085938 17.46875 -4.210938 17.0625 -3.359375 C 16.664062 -2.523438 16.09375 -1.851562 15.34375 -1.34375 C 14.59375 -0.84375 13.769531 -0.550781 12.875 -0.46875 C 11.976562 -0.382812 11.101562 -0.546875 10.25 -0.953125 Z M 10.25 -0.953125 "/></g></g><g style="fill:#000000;fill-opacity:1;"><g transform="translate(241.937388, 71.586945)"><path style="stroke:none" d="M 2.5625 4.859375 L 3.984375 2.859375 L 17.640625 12.625 L 16.21875 14.625 Z M 2.5625 4.859375 "/></g></g><g style="fill:#000000;fill-opacity:1;"><g transform="translate(261.619309, 85.919651)"><path style="stroke:none" d="M 9.9375 2.703125 C 9.289062 2.035156 8.859375 1.257812 8.640625 0.375 C 8.429688 -0.507812 8.441406 -1.382812 8.671875 -2.25 C 8.910156 -3.113281 9.363281 -3.867188 10.03125 -4.515625 C 10.707031 -5.179688 11.484375 -5.617188 12.359375 -5.828125 C 13.242188 -6.046875 14.117188 -6.03125 14.984375 -5.78125 C 15.859375 -5.539062 16.617188 -5.085938 17.265625 -4.421875 C 17.929688 -3.742188 18.367188 -2.96875 18.578125 -2.09375 C 18.785156 -1.226562 18.769531 -0.363281 18.53125 0.5 C 18.289062 1.375 17.832031 2.144531 17.15625 2.8125 C 16.488281 3.457031 15.71875 3.882812 14.84375 4.09375 C 13.96875 4.300781 13.097656 4.289062 12.234375 4.0625 C 11.367188 3.832031 10.601562 3.378906 9.9375 2.703125 Z M 9.9375 2.703125 "/></g></g><g style="fill:#000000;fill-opacity:1;"><g transform="translate(272.849148, 97.604146)"><path style="stroke:none" d=""/></g></g><g style="fill:#000000;fill-opacity:1;"><g transform="translate(279.335601, 104.978608)"><path style="stroke:none" d="M 2.203125 4 L 28.84375 -10.65625 L 38.21875 6.421875 L 35.640625 7.84375 L 27.90625 -6.234375 L 18.4375 -1.03125 L 25.265625 11.390625 L 22.765625 12.78125 L 15.9375 0.359375 L 3.84375 7 Z M 2.203125 4 "/></g></g><g style="fill:#000000;fill-opacity:1;"><g transform="translate(290.525628, 125.707734)"><path style="stroke:none" d="M 1.171875 3.421875 L 21.515625 -3.546875 L 22.546875 -0.53125 L 18.9375 0.703125 C 19.882812 0.773438 20.765625 1.019531 21.578125 1.4375 C 22.398438 1.851562 23.101562 2.394531 23.6875 3.0625 C 24.28125 3.726562 24.722656 4.488281 25.015625 5.34375 C 25.253906 6.050781 25.367188 6.710938 25.359375 7.328125 C 25.347656 7.953125 25.257812 8.5 25.09375 8.96875 L 22.03125 8.59375 C 22.195312 8.15625 22.265625 7.707031 22.234375 7.25 C 22.210938 6.789062 22.125 6.320312 21.96875 5.84375 C 21.375 4.125 20.234375 3 18.546875 2.46875 C 16.867188 1.9375 14.804688 2.09375 12.359375 2.9375 L 2.203125 6.421875 Z M 1.171875 3.421875 "/></g></g><g style="fill:#000000;fill-opacity:1;"><g transform="translate(295.845379, 139.810706)"><path style="stroke:none" d="M 1.53125 11.90625 C 1.28125 10.40625 1.34375 8.992188 1.71875 7.671875 C 2.101562 6.347656 2.734375 5.15625 3.609375 4.09375 C 4.484375 3.039062 5.546875 2.164062 6.796875 1.46875 C 8.054688 0.769531 9.441406 0.296875 10.953125 0.046875 C 12.472656 -0.203125 13.929688 -0.203125 15.328125 0.046875 C 16.734375 0.304688 18.015625 0.796875 19.171875 1.515625 C 20.335938 2.234375 21.304688 3.15625 22.078125 4.28125 C 22.847656 5.414062 23.359375 6.734375 23.609375 8.234375 C 23.847656 9.722656 23.785156 11.128906 23.421875 12.453125 C 23.066406 13.785156 22.453125 14.984375 21.578125 16.046875 C 20.710938 17.109375 19.660156 17.992188 18.421875 18.703125 C 17.191406 19.421875 15.816406 19.90625 14.296875 20.15625 C 12.785156 20.40625 11.316406 20.394531 9.890625 20.125 C 8.472656 19.851562 7.179688 19.351562 6.015625 18.625 C 4.847656 17.90625 3.867188 16.976562 3.078125 15.84375 C 2.285156 14.707031 1.769531 13.394531 1.53125 11.90625 Z M 4.171875 11.484375 C 4.367188 12.671875 4.78125 13.65625 5.40625 14.4375 C 6.03125 15.21875 6.789062 15.820312 7.6875 16.25 C 8.59375 16.675781 9.566406 16.941406 10.609375 17.046875 C 11.660156 17.160156 12.710938 17.128906 13.765625 16.953125 C 14.828125 16.773438 15.832031 16.46875 16.78125 16.03125 C 17.738281 15.59375 18.566406 15.03125 19.265625 14.34375 C 19.972656 13.65625 20.484375 12.835938 20.796875 11.890625 C 21.117188 10.953125 21.179688 9.898438 20.984375 8.734375 C 20.796875 7.554688 20.394531 6.570312 19.78125 5.78125 C 19.175781 5 18.429688 4.390625 17.546875 3.953125 C 16.660156 3.523438 15.691406 3.253906 14.640625 3.140625 C 13.597656 3.035156 12.546875 3.070312 11.484375 3.25 C 10.410156 3.425781 9.394531 3.734375 8.4375 4.171875 C 7.476562 4.617188 6.644531 5.1875 5.9375 5.875 C 5.226562 6.5625 4.707031 7.375 4.375 8.3125 C 4.039062 9.257812 3.972656 10.316406 4.171875 11.484375 Z M 4.171875 11.484375 "/></g></g><g style="fill:#000000;fill-opacity:1;"><g transform="translate(299.627691, 161.166081)"><path style="stroke:none" d="M -0.109375 3.609375 L 21.375 4.234375 L 21.28125 7.4375 L 17.546875 7.328125 C 18.773438 8.085938 19.742188 9.0625 20.453125 10.25 C 21.171875 11.445312 21.503906 12.828125 21.453125 14.390625 C 21.421875 15.660156 21.160156 16.738281 20.671875 17.625 C 20.179688 18.519531 19.515625 19.25 18.671875 19.8125 C 17.835938 20.375 16.890625 20.773438 15.828125 21.015625 C 14.765625 21.253906 13.640625 21.351562 12.453125 21.3125 L -0.609375 20.9375 L -0.515625 17.765625 L 12.21875 18.140625 C 12.96875 18.160156 13.71875 18.101562 14.46875 17.96875 C 15.226562 17.832031 15.929688 17.59375 16.578125 17.25 C 17.222656 16.90625 17.738281 16.421875 18.125 15.796875 C 18.507812 15.179688 18.71875 14.398438 18.75 13.453125 C 18.78125 12.328125 18.519531 11.296875 17.96875 10.359375 C 17.414062 9.429688 16.550781 8.675781 15.375 8.09375 C 14.207031 7.507812 12.738281 7.191406 10.96875 7.140625 L -0.203125 6.8125 Z M -0.109375 3.609375 "/></g></g><g style="fill:#000000;fill-opacity:1;"><g transform="translate(298.765338, 183.254761)"><path style="stroke:none" d="M -2.203125 9.359375 C -1.960938 8.117188 -1.519531 7.164062 -0.875 6.5 C -0.226562 5.84375 0.578125 5.429688 1.546875 5.265625 C 2.515625 5.097656 3.597656 5.128906 4.796875 5.359375 L 17.75 7.765625 L 18.390625 4.390625 L 20.96875 4.875 L 20.328125 8.265625 L 25.0625 9.15625 L 27.453125 12.84375 L 19.75 11.40625 L 18.75 16.75 L 16.171875 16.265625 L 17.171875 10.921875 L 4.203125 8.515625 C 3.046875 8.296875 2.140625 8.382812 1.484375 8.78125 C 0.835938 9.1875 0.441406 9.78125 0.296875 10.5625 C 0.234375 10.90625 0.210938 11.269531 0.234375 11.65625 C 0.253906 12.050781 0.316406 12.421875 0.421875 12.765625 L -2.28125 12.265625 C -2.34375 12.023438 -2.375 11.640625 -2.375 11.109375 C -2.375 10.585938 -2.316406 10.003906 -2.203125 9.359375 Z M -2.203125 9.359375 "/></g></g><g style="fill:#000000;fill-opacity:1;"><g transform="translate(296.622691, 195.926102)"><path style="stroke:none" d="M 10.75 7.15625 L 13.078125 7.90625 L 9.671875 18.390625 L 7.34375 17.640625 Z M 10.75 7.15625 "/></g></g><g style="fill:#000000;fill-opacity:1;"><g transform="translate(292.295999, 211.107157)"><path style="stroke:none" d="M -2.171875 4.015625 L 24.59375 18.453125 L 15.25 35.78125 L 12.640625 34.375 L 20.359375 20.0625 L 10.859375 14.9375 L 4.15625 27.375 L 1.640625 26.015625 L 8.34375 13.578125 L -1.046875 8.515625 L -8.765625 22.828125 L -11.515625 21.34375 Z M -2.171875 4.015625 "/></g></g><g style="fill:#000000;fill-opacity:1;"><g transform="translate(280.952505, 232.410931)"><path style="stroke:none" d="M -2.328125 2.765625 L 14.140625 16.59375 L 12.09375 19.046875 L 9.21875 16.640625 C 9.707031 18.003906 9.859375 19.375 9.671875 20.75 C 9.492188 22.125 8.90625 23.410156 7.90625 24.609375 C 7.082031 25.578125 6.203125 26.257812 5.265625 26.65625 C 4.328125 27.050781 3.351562 27.207031 2.34375 27.125 C 1.34375 27.050781 0.347656 26.773438 -0.640625 26.296875 C -1.628906 25.828125 -2.578125 25.210938 -3.484375 24.453125 L -13.484375 16.046875 L -11.421875 13.609375 L -1.671875 21.796875 C -1.097656 22.285156 -0.476562 22.707031 0.1875 23.0625 C 0.863281 23.425781 1.5625 23.671875 2.28125 23.796875 C 3.007812 23.929688 3.71875 23.875 4.40625 23.625 C 5.101562 23.382812 5.753906 22.90625 6.359375 22.1875 C 7.085938 21.320312 7.519531 20.347656 7.65625 19.265625 C 7.800781 18.191406 7.597656 17.0625 7.046875 15.875 C 6.492188 14.695312 5.535156 13.539062 4.171875 12.40625 L -4.375 5.21875 Z M -2.328125 2.765625 "/></g></g><g style="fill:#000000;fill-opacity:1;"><g transform="translate(267.194693, 249.166558)"><path style="stroke:none" d="M 5.5 34.59375 L 3 36.609375 L -16.0625 12.921875 L -13.625 10.953125 L -11.703125 13.25 C -11.796875 12.019531 -11.617188 10.816406 -11.171875 9.640625 C -10.734375 8.460938 -9.878906 7.367188 -8.609375 6.359375 C -7.535156 5.492188 -6.394531 4.953125 -5.1875 4.734375 C -3.988281 4.515625 -2.78125 4.578125 -1.5625 4.921875 C -0.34375 5.265625 0.832031 5.84375 1.96875 6.65625 C 3.113281 7.476562 4.164062 8.484375 5.125 9.671875 C 6.09375 10.867188 6.851562 12.113281 7.40625 13.40625 C 7.957031 14.695312 8.265625 15.972656 8.328125 17.234375 C 8.398438 18.492188 8.203125 19.679688 7.734375 20.796875 C 7.273438 21.921875 6.507812 22.914062 5.4375 23.78125 C 4.207031 24.769531 2.972656 25.375 1.734375 25.59375 C 0.492188 25.8125 -0.722656 25.738281 -1.921875 25.375 Z M -7.53125 9 C -8.394531 9.6875 -8.984375 10.453125 -9.296875 11.296875 C -9.609375 12.140625 -9.707031 13.023438 -9.59375 13.953125 C -9.476562 14.890625 -9.191406 15.820312 -8.734375 16.75 C -8.273438 17.675781 -7.703125 18.570312 -7.015625 19.4375 C -6.328125 20.289062 -5.578125 21.039062 -4.765625 21.6875 C -3.953125 22.332031 -3.101562 22.8125 -2.21875 23.125 C -1.332031 23.4375 -0.441406 23.53125 0.453125 23.40625 C 1.347656 23.289062 2.226562 22.890625 3.09375 22.203125 C 3.9375 21.523438 4.507812 20.757812 4.8125 19.90625 C 5.113281 19.0625 5.210938 18.164062 5.109375 17.21875 C 5.003906 16.28125 4.722656 15.34375 4.265625 14.40625 C 3.816406 13.476562 3.25 12.585938 2.5625 11.734375 C 1.882812 10.890625 1.132812 10.140625 0.3125 9.484375 C -0.507812 8.835938 -1.367188 8.363281 -2.265625 8.0625 C -3.160156 7.757812 -4.050781 7.671875 -4.9375 7.796875 C -5.820312 7.921875 -6.6875 8.320312 -7.53125 9 Z M -7.53125 9 "/></g></g><g style="fill:#000000;fill-opacity:1;"><g transform="translate(249.499611, 262.982186)"><path style="stroke:none" d=""/></g></g><g style="fill:#000000;fill-opacity:1;"><g transform="translate(240.886647, 268.372146)"><path style="stroke:none" d="M -6 8.375 C -5.144531 8.007812 -4.265625 7.875 -3.359375 7.96875 C -2.460938 8.070312 -1.648438 8.382812 -0.921875 8.90625 C -0.191406 9.4375 0.359375 10.128906 0.734375 10.984375 C 1.109375 11.847656 1.242188 12.726562 1.140625 13.625 C 1.035156 14.519531 0.71875 15.332031 0.1875 16.0625 C -0.332031 16.800781 -1.019531 17.351562 -1.875 17.71875 C -2.738281 18.101562 -3.617188 18.242188 -4.515625 18.140625 C -5.410156 18.035156 -6.222656 17.71875 -6.953125 17.1875 C -7.679688 16.65625 -8.234375 15.957031 -8.609375 15.09375 C -8.984375 14.238281 -9.117188 13.363281 -9.015625 12.46875 C -8.910156 11.582031 -8.597656 10.773438 -8.078125 10.046875 C -7.554688 9.316406 -6.863281 8.757812 -6 8.375 Z M -6 8.375 "/></g></g><g style="fill:#000000;fill-opacity:1;"><g transform="translate(226.915817, 275.170943)"><path style="stroke:none" d="M -5.34375 -1.234375 L -4.765625 1.15625 L -21.078125 5.078125 L -21.65625 2.6875 Z M -5.34375 -1.234375 "/></g></g><g style="fill:#000000;fill-opacity:1;"><g transform="translate(203.194299, 280.682991)"><path style="stroke:none" d="M -8.53125 5.75 C -7.601562 5.695312 -6.734375 5.875 -5.921875 6.28125 C -5.117188 6.695312 -4.46875 7.28125 -3.96875 8.03125 C -3.476562 8.78125 -3.207031 9.617188 -3.15625 10.546875 C -3.09375 11.492188 -3.265625 12.363281 -3.671875 13.15625 C -4.085938 13.957031 -4.671875 14.609375 -5.421875 15.109375 C -6.179688 15.617188 -7.023438 15.898438 -7.953125 15.953125 C -8.898438 16.003906 -9.769531 15.820312 -10.5625 15.40625 C -11.363281 15 -12.007812 14.421875 -12.5 13.671875 C -13 12.929688 -13.28125 12.085938 -13.34375 11.140625 C -13.394531 10.210938 -13.210938 9.347656 -12.796875 8.546875 C -12.390625 7.742188 -11.8125 7.085938 -11.0625 6.578125 C -10.320312 6.078125 -9.476562 5.800781 -8.53125 5.75 Z M -8.53125 5.75 "/></g></g><g style="fill:#000000;fill-opacity:1;"><g transform="translate(187.007607, 281.533803)"><path style="stroke:none" d=""/></g></g><g style="fill:#000000;fill-opacity:1;"><g transform="translate(176.571836, 280.962699)"><path style="stroke:none" d=""/></g></g><g style="fill:#000000;fill-opacity:1;"><g transform="translate(166.235257, 279.417842)"><path style="stroke:none" d=""/></g></g><g style="fill:#000000;fill-opacity:1;"><g transform="translate(156.088558, 276.912712)"><path style="stroke:none" d=""/></g></g><g style="fill:#000000;fill-opacity:1;"><g transform="translate(146.220716, 273.469308)"><path style="stroke:none" d=""/></g></g><g style="fill:#000000;fill-opacity:1;"><g transform="translate(136.7183, 269.117814)"><path style="stroke:none" d=""/></g></g><g style="fill:#000000;fill-opacity:1;"><g transform="translate(127.664658, 263.896421)"><path style="stroke:none" d=""/></g></g><g style="fill:#000000;fill-opacity:1;"><g transform="translate(119.139197, 257.850944)"><path style="stroke:none" d=""/></g></g><g style="fill:#000000;fill-opacity:1;"><g transform="translate(111.21672, 251.034326)"><path style="stroke:none" d=""/></g></g><g style="fill:#000000;fill-opacity:1;"><g transform="translate(103.9667, 243.506484)"><path style="stroke:none" d=""/></g></g><g style="fill:#000000;fill-opacity:1;"><g transform="translate(97.452748, 235.33338)"><path style="stroke:none" d=""/></g></g><g style="fill:#000000;fill-opacity:1;"><g transform="translate(91.731985, 226.586722)"><path style="stroke:none" d=""/></g></g><g style="fill:#000000;fill-opacity:1;"><g transform="translate(86.854592, 217.343178)"><path style="stroke:none" d=""/></g></g><g style="fill:#000000;fill-opacity:1;"><g transform="translate(82.863379, 207.683912)"><path style="stroke:none" d=""/></g></g><g style="fill:#000000;fill-opacity:1;"><g transform="translate(79.793323, 197.693622)"><path style="stroke:none" d=""/></g></g><g style="fill:#000000;fill-opacity:1;"><g transform="translate(77.671358, 187.459924)"><path style="stroke:none" d=""/></g></g><g style="fill:#000000;fill-opacity:1;"><g transform="translate(76.516121, 177.072578)"><path style="stroke:none" d=""/></g></g><g style="fill:#000000;fill-opacity:1;"><g transform="translate(76.337706, 166.62272)"><path style="stroke:none" d=""/></g></g><g style="fill:#000000;fill-opacity:1;"><g transform="translate(77.137712, 156.201996)"><path style="stroke:none" d=""/></g></g><g style="fill:#000000;fill-opacity:1;"><g transform="translate(78.909122, 145.901827)"><path style="stroke:none" d=""/></g></g><g style="fill:#000000;fill-opacity:1;"><g transform="translate(81.636369, 135.812551)"><path style="stroke:none" d=""/></g></g><g style="fill:#000000;fill-opacity:1;"><g transform="translate(85.295557, 126.022677)"><path style="stroke:none" d=""/></g></g><g style="fill:#000000;fill-opacity:1;"><g transform="translate(89.854578, 116.618067)"><path style="stroke:none" d=""/></g></g><g style="fill:#000000;fill-opacity:1;"><g transform="translate(95.273441, 107.681218)"><path style="stroke:none" d=""/></g></g><g style="fill:#000000;fill-opacity:1;"><g transform="translate(101.504622, 99.29052)"><path style="stroke:none" d=""/></g></g><g style="fill:#000000;fill-opacity:1;"><g transform="translate(108.493454, 91.519572)"><path style="stroke:none" d=""/></g></g><g style="fill:#000000;fill-opacity:1;"><g transform="translate(116.178635, 84.436543)"><path style="stroke:none" d=""/></g></g><g style="fill:#000000;fill-opacity:1;"><g transform="translate(124.492771, 78.103554)"><path style="stroke:none" d=""/></g></g><g style="fill:#000000;fill-opacity:1;"><g transform="translate(133.362907, 72.576166)"><path style="stroke:none" d=""/></g></g><g style="fill:#000000;fill-opacity:1;"><g transform="translate(142.711246, 67.902855)"><path style="stroke:none" d=""/></g></g><g style="fill:#000000;fill-opacity:1;"><g transform="translate(152.455807, 64.124618)"><path style="stroke:none" d=""/></g></g><g style="fill:#000000;fill-opacity:1;"><g transform="translate(162.511085, 61.274593)"><path style="stroke:none" d=""/></g></g><g style="fill:#000000;fill-opacity:1;"><g transform="translate(172.788903, 59.377782)"><path style="stroke:none" d=""/></g></g><g style="fill:#000000;fill-opacity:1;"><g transform="translate(183.199101, 58.450825)"><path style="stroke:none" d=""/></g></g><g style="fill:#000000;fill-opacity:1;"><g transform="translate(193.650345, 58.50184)"><path style="stroke:none" d=""/></g></g><g style="fill:#000000;fill-opacity:1;"><g transform="translate(204.050997, 59.530395)"><path style="stroke:none" d=""/></g></g><g style="fill:#000000;fill-opacity:1;"><g transform="translate(214.309804, 61.527463)"><path style="stroke:none" d=""/></g></g><g style="fill:#000000;fill-opacity:1;"><g transform="translate(224.336802, 64.475521)"><path style="stroke:none" d=""/></g></g><g style="fill:#000000;fill-opacity:1;"><g transform="translate(234.043986, 68.34872)"><path style="stroke:none" d=""/></g></g><g style="fill:#000000;fill-opacity:1;"><g transform="translate(243.346249, 73.113079)"><path style="stroke:none" d=""/></g></g><g style="fill:#000000;fill-opacity:1;"><g transform="translate(252.162024, 78.726804)"><path style="stroke:none" d=""/></g></g><g style="fill:#000000;fill-opacity:1;"><g transform="translate(260.413924, 85.140665)"><path style="stroke:none" d=""/></g></g><g style="fill:#000000;fill-opacity:1;"><g transform="translate(268.029574, 92.298387)"><path style="stroke:none" d=""/></g></g><g style="fill:#000000;fill-opacity:1;"><g transform="translate(274.942207, 100.137191)"><path style="stroke:none" d=""/></g></g><g style="fill:#000000;fill-opacity:1;"><g transform="translate(281.091152, 108.588331)"><path style="stroke:none" d=""/></g></g><g style="fill:#000000;fill-opacity:1;"><g transform="translate(286.422527, 117.577663)"><path style="stroke:none" d=""/></g></g><g style="fill:#000000;fill-opacity:1;"><g transform="translate(290.889507, 127.026339)"><path style="stroke:none" d=""/></g></g><g style="fill:#000000;fill-opacity:1;"><g transform="translate(294.452927, 136.851485)"><path style="stroke:none" d=""/></g></g><g style="fill:#000000;fill-opacity:1;"><g transform="translate(297.081558, 146.966886)"><path style="stroke:none" d=""/></g></g><g style="fill:#000000;fill-opacity:1;"><g transform="translate(298.752317, 157.283886)"><path style="stroke:none" d=""/></g></g><g style="fill:#000000;fill-opacity:1;"><g transform="translate(299.450536, 167.711896)"><path style="stroke:none" d=""/></g></g><g style="fill:#000000;fill-opacity:1;"><g transform="translate(299.170148, 178.159536)"><path style="stroke:none" d=""/></g></g><g style="fill:#000000;fill-opacity:1;"><g transform="translate(297.9135, 188.535101)"><path style="stroke:none" d=""/></g></g><g style="fill:#000000;fill-opacity:1;"><g transform="translate(295.691733, 198.747608)"><path style="stroke:none" d=""/></g></g><g style="fill:#000000;fill-opacity:1;"><g transform="translate(292.524314, 208.707434)"><path style="stroke:none" d=""/></g></g><g style="fill:#000000;fill-opacity:1;"><g transform="translate(288.438948, 218.327275)"><path style="stroke:none" d=""/></g></g><g style="fill:#000000;fill-opacity:1;"><g transform="translate(283.471575, 227.522749)"><path style="stroke:none" d=""/></g></g><g style="fill:#000000;fill-opacity:1;"><g transform="translate(277.665697, 236.213146)"><path style="stroke:none" d=""/></g></g><g style="fill:#000000;fill-opacity:1;"><g transform="translate(271.072237, 244.322265)"><path style="stroke:none" d=""/></g></g><g style="fill:#000000;fill-opacity:1;"><g transform="translate(263.749085, 251.778992)"><path style="stroke:none" d=""/></g></g><g style="fill:#000000;fill-opacity:1;"><g transform="translate(255.760414, 258.517884)"><path style="stroke:none" d=""/></g></g><g style="fill:#000000;fill-opacity:1;"><g transform="translate(247.176333, 264.479852)"><path style="stroke:none" d=""/></g></g><g style="fill:#000000;fill-opacity:1;"><g transform="translate(238.072142, 269.612609)"><path style="stroke:none" d=""/></g></g><g style="fill:#000000;fill-opacity:1;"><g transform="translate(228.527688, 273.871107)"><path style="stroke:none" d=""/></g></g><g style="fill:#000000;fill-opacity:1;"><g transform="translate(218.626695, 277.218026)"><path style="stroke:none" d=""/></g></g><g style="fill:#000000;fill-opacity:1;"><g transform="translate(208.45601, 279.623925)"><path style="stroke:none" d=""/></g></g><g style="fill:#000000;fill-opacity:1;"><g transform="translate(198.104854, 281.06783)"><path style="stroke:none" d=""/></g></g><g style="fill:#000000;fill-opacity:1;"><g transform="translate(187.664002, 281.536993)"><path style="stroke:none" d=""/></g></g><g style="fill:#000000;fill-opacity:1;"><g transform="translate(177.225053, 281.027344)"><path style="stroke:none" d=""/></g></g><g style="fill:#000000;fill-opacity:1;"><g transform="translate(166.87959, 279.54325)"><path style="stroke:none" d=""/></g></g><g style="fill:#000000;fill-opacity:1;"><g transform="translate(156.718325, 277.097877)"><path style="stroke:none" d=""/></g></g><g style="fill:#000000;fill-opacity:1;"><g transform="translate(146.830382, 273.712561)"><path style="stroke:none" d=""/></g></g><g style="fill:#000000;fill-opacity:1;"><g transform="translate(137.302533, 269.417036)"><path style="stroke:none" d=""/></g></g><g style="fill:#000000;fill-opacity:1;"><g transform="translate(128.218343, 264.249)"><path style="stroke:none" d=""/></g></g><g style="fill:#000000;fill-opacity:1;"><g transform="translate(119.657468, 258.253746)"><path style="stroke:none" d=""/></g></g><g style="fill:#000000;fill-opacity:1;"><g transform="translate(111.69503, 251.483895)"><path style="stroke:none" d=""/></g></g><g style="fill:#000000;fill-opacity:1;"><g transform="translate(97.838936, 235.864154)"><path style="stroke:none" d=""/></g></g><g style="fill:#000000;fill-opacity:1;"><g transform="translate(92.066828, 227.151279)"><path style="stroke:none" d=""/></g></g><g style="fill:#000000;fill-opacity:1;"><g transform="translate(87.135153, 217.936638)"><path style="stroke:none" d=""/></g></g><g style="fill:#000000;fill-opacity:1;"><g transform="translate(83.087175, 208.301007)"><path style="stroke:none" d=""/></g></g><g style="fill:#000000;fill-opacity:1;"><g transform="translate(79.958413, 198.328934)"><path style="stroke:none" d=""/></g></g><g style="fill:#000000;fill-opacity:1;"><g transform="translate(77.776285, 188.107896)"><path style="stroke:none" d=""/></g></g><g style="fill:#000000;fill-opacity:1;"><g transform="translate(76.559962, 177.727525)"><path style="stroke:none" d=""/></g></g><g style="fill:#000000;fill-opacity:1;"><g transform="translate(76.320095, 167.278891)"><path style="stroke:none" d=""/></g></g><g style="fill:#000000;fill-opacity:1;"><g transform="translate(77.058804, 156.853654)"><path style="stroke:none" d=""/></g></g><g style="fill:#000000;fill-opacity:1;"><g transform="translate(78.769581, 146.543235)"><path style="stroke:none" d=""/></g></g><g style="fill:#000000;fill-opacity:1;"><g transform="translate(81.437441, 136.438088)"><path style="stroke:none" d=""/></g></g><g style="fill:#000000;fill-opacity:1;"><g transform="translate(85.038967, 126.626859)"><path style="stroke:none" d=""/></g></g><g style="fill:#000000;fill-opacity:1;"><g transform="translate(89.542596, 117.195602)"><path style="stroke:none" d=""/></g></g><g style="fill:#000000;fill-opacity:1;"><g transform="translate(94.908804, 108.227027)"><path style="stroke:none" d=""/></g></g><g style="fill:#000000;fill-opacity:1;"><g transform="translate(101.090514, 99.799822)"><path style="stroke:none" d=""/></g></g><g style="fill:#000000;fill-opacity:1;"><g transform="translate(108.033516, 91.987897)"><path style="stroke:none" d=""/></g></g><g style="fill:#000000;fill-opacity:1;"><g transform="translate(115.676902, 84.859784)"><path style="stroke:none" d=""/></g></g><g style="fill:#000000;fill-opacity:1;"><g transform="translate(123.953632, 78.478001)"><path style="stroke:none" d=""/></g></g><g style="fill:#000000;fill-opacity:1;"><g transform="translate(132.791103, 72.898534)"><path style="stroke:none" d=""/></g></g><g style="fill:#000000;fill-opacity:1;"><g transform="translate(142.111792, 68.170313)"><path style="stroke:none" d=""/></g></g><g style="fill:#000000;fill-opacity:1;"><g transform="translate(151.833966, 64.334826)"><path style="stroke:none" d=""/></g></g><g style="fill:#000000;fill-opacity:1;"><g transform="translate(161.87231, 61.425701)"><path style="stroke:none" d=""/></g></g><g style="fill:#000000;fill-opacity:1;"><g transform="translate(172.138789, 59.468467)"><path style="stroke:none" d=""/></g></g><g style="fill:#000000;fill-opacity:1;"><g transform="translate(182.543352, 58.480286)"><path style="stroke:none" d=""/></g></g><g style="fill:#000000;fill-opacity:1;"><g transform="translate(192.994747, 58.469832)"><path style="stroke:none" d=""/></g></g><g style="fill:#000000;fill-opacity:1;"><g transform="translate(203.401242, 59.437188)"><path style="stroke:none" d=""/></g></g><g style="fill:#000000;fill-opacity:1;"><g transform="translate(213.671624, 61.373877)"><path style="stroke:none" d=""/></g></g><g style="fill:#000000;fill-opacity:1;"><g transform="translate(223.715773, 64.262907)"><path style="stroke:none" d=""/></g></g><g style="fill:#000000;fill-opacity:1;"><g transform="translate(233.445588, 68.078934)"><path style="stroke:none" d=""/></g></g><g style="fill:#000000;fill-opacity:1;"><g transform="translate(242.77574, 72.788494)"><path style="stroke:none" d=""/></g></g><g style="fill:#000000;fill-opacity:1;"><g transform="translate(251.624318, 78.350268)"><path style="stroke:none" d=""/></g></g><g style="fill:#000000;fill-opacity:1;"><g transform="translate(259.91382, 84.715478)"><path style="stroke:none" d=""/></g></g><g style="fill:#000000;fill-opacity:1;"><g transform="translate(267.571457, 91.828283)"><path style="stroke:none" d=""/></g></g><g style="fill:#000000;fill-opacity:1;"><g transform="translate(274.530077, 99.626293)"><path style="stroke:none" d=""/></g></g><g style="fill:#000000;fill-opacity:1;"><g transform="translate(280.728657, 108.041111)"><path style="stroke:none" d=""/></g></g><g style="fill:#000000;fill-opacity:1;"><g transform="translate(290.635285, 126.421164)"><path style="stroke:none" d=""/></g></g><g style="fill:#000000;fill-opacity:1;"><g transform="translate(294.256434, 136.225173)"><path style="stroke:none" d=""/></g></g><g style="fill:#000000;fill-opacity:1;"><g transform="translate(296.944504, 146.324948)"><path style="stroke:none" d=""/></g></g><g style="fill:#000000;fill-opacity:1;"><g transform="translate(298.675917, 156.631926)"><path style="stroke:none" d=""/></g></g><g style="fill:#000000;fill-opacity:1;"><g transform="translate(299.435475, 167.055672)"><path style="stroke:none" d=""/></g></g><g style="fill:#000000;fill-opacity:1;"><g transform="translate(299.216515, 177.50475)"><path style="stroke:none" d=""/></g></g><g style="fill:#000000;fill-opacity:1;"><g transform="translate(298.020961, 187.887532)"><path style="stroke:none" d=""/></g></g><g style="fill:#000000;fill-opacity:1;"><g transform="translate(295.859315, 198.11293)"><path style="stroke:none" d=""/></g></g><g style="fill:#000000;fill-opacity:1;"><g transform="translate(292.750496, 208.091234)"><path style="stroke:none" d=""/></g></g><g style="fill:#000000;fill-opacity:1;"><g transform="translate(288.721798, 217.734926)"><path style="stroke:none" d=""/></g></g><g style="fill:#000000;fill-opacity:1;"><g transform="translate(283.808602, 226.959452)"><path style="stroke:none" d=""/></g></g><g style="fill:#000000;fill-opacity:1;"><g transform="translate(278.053926, 235.683856)"><path style="stroke:none" d=""/></g></g><g style="fill:#000000;fill-opacity:1;"><g transform="translate(271.508295, 243.831624)"><path style="stroke:none" d=""/></g></g><g style="fill:#000000;fill-opacity:1;"><g transform="translate(264.229115, 251.331303)"><path style="stroke:none" d=""/></g></g><g style="fill:#000000;fill-opacity:1;"><g transform="translate(256.280232, 258.117055)"><path style="stroke:none" d=""/></g></g><g style="fill:#000000;fill-opacity:1;"><g transform="translate(247.731385, 264.129429)"><path style="stroke:none" d=""/></g></g><g style="fill:#000000;fill-opacity:1;"><g transform="translate(238.657516, 269.315643)"><path style="stroke:none" d=""/></g></g><g style="fill:#000000;fill-opacity:1;"><g transform="translate(229.138318, 273.630209)"><path style="stroke:none" d=""/></g></g><g style="fill:#000000;fill-opacity:1;"><g transform="translate(219.257174, 277.035303)"><path style="stroke:none" d=""/></g></g><g style="fill:#000000;fill-opacity:1;"><g transform="translate(209.100825, 279.501023)"><path style="stroke:none" d=""/></g></g><g style="fill:#000000;fill-opacity:1;"><g transform="translate(198.758331, 281.005769)"><path style="stroke:none" d=""/></g></g></g></svg>